<?xml version="1.0" encoding="utf-8"?>
<!-- Generator: Adobe Illustrator 24.0.1, SVG Export Plug-In . SVG Version: 6.00 Build 0)  -->
<svg fill="#8ce1eb" version="1.1" id="Layer_1" xmlns="http://www.w3.org/2000/svg" xmlns:xlink="http://www.w3.org/1999/xlink" x="0px" y="0px"
	 viewBox="0 0 300 300" style="enable-background:new 0 0 300 300;" xml:space="preserve">
<g id="marketing_1_" transform="translate(39.998 -67.24) rotate(11)">
	<path id="Path_59" d="M35.34,111.15l-17.04-8.35c-4.11-2.04-5.82-7.01-3.83-11.15c1.93-4.1,6.82-5.86,10.91-3.93
		c0.03,0.02,0.07,0.03,0.1,0.05l17.04,8.35c4.11,2.04,5.82,7.01,3.83,11.15c-1.93,4.1-6.82,5.86-10.91,3.93
		C35.41,111.19,35.37,111.17,35.34,111.15z"/>
	<path id="Path_60" d="M35.34,144.55L18.3,136.2c-4.11-2.04-5.82-7.01-3.83-11.15c1.93-4.1,6.82-5.86,10.91-3.93
		c0.03,0.02,0.07,0.03,0.1,0.05l17.04,8.35c4.11,2.04,5.82,7.01,3.83,11.15c-1.93,4.1-6.82,5.86-10.91,3.93
		C35.41,144.58,35.37,144.56,35.34,144.55z"/>
	<path id="Path_61" d="M18.26,238.06l16.88-8.35c4.06-2,8.98-0.33,10.98,3.73c0.02,0.03,0.03,0.07,0.05,0.1
		c2,4.13,0.32,9.11-3.79,11.17l-16.88,8.35c-4.06,2-8.98,0.33-10.98-3.73c-0.02-0.03-0.03-0.07-0.05-0.1
		C12.47,245.09,14.16,240.12,18.26,238.06z"/>
	<path id="Path_62" d="M18.28,271.44l16.97-8.35c4.07-1.99,8.98-0.31,10.97,3.76c0.02,0.03,0.03,0.07,0.05,0.1
		c1.99,4.14,0.3,9.11-3.81,11.16l-16.97,8.35c-4.07,1.99-8.98,0.31-10.97-3.76c-0.02-0.03-0.03-0.07-0.05-0.1
		C12.47,278.46,14.17,273.49,18.28,271.44z"/>
	<path id="Path_63" d="M30.71,204.37l0-33.95c-0.02-4.06,2.89-7.54,6.89-8.23l26.07-4.4v58.92l-25.98-4.09
		C33.65,211.96,30.69,208.46,30.71,204.37z"/>
	<path id="Path_64" d="M212.11,229.01c-5.73,0.21-11.22,0.63-16.49,1.22v-86.22c5.27,0.59,10.76,1.01,16.49,1.22V229.01z"/>
	<path id="Path_65" d="M85.59,95.81c3.26-1.2,6.93-0.21,9.14,2.47c0.1,0.12,10.08,11.94,30.46,23.58
		c16.79,9.43,35.01,16.06,53.94,19.63l0,91.26c-18.93,3.57-37.14,10.2-53.94,19.63c-20.38,11.64-30.36,23.46-30.44,23.56
		c-2.2,2.7-5.87,3.7-9.14,2.51c-3.28-1.22-5.45-4.35-5.44-7.85l0-166.96C80.15,100.15,82.32,97.03,85.59,95.81L85.59,95.81z"/>
	<path id="Path_66" d="M294.58,153.73v66.75l0.55,66.75c0.02,2.22-0.84,4.36-2.39,5.95c-1.54,1.58-3.65,2.47-5.86,2.47h-33.54
		c-4.58-0.03-8.27-3.77-8.25-8.35v-58.44h-16.49v-83.48h57.73C290.92,145.4,294.61,149.14,294.58,153.73
		C294.58,153.72,294.58,153.73,294.58,153.73z"/>
</g>
</svg>
