<?xml version="1.0" encoding="utf-8"?>
<!-- Generator: Adobe Illustrator 24.0.1, SVG Export Plug-In . SVG Version: 6.00 Build 0)  -->
<svg version="1.1" width='30' height='30' id="Layer_1" xmlns="http://www.w3.org/2000/svg" xmlns:xlink="http://www.w3.org/1999/xlink" x="0px" y="0px"
	 viewBox="0 0 300 300" style="enable-background:new 0 0 300 300;" xml:space="preserve">
<path d="M275.23,170.84c0.98-5.44,5.74-9.37,11.26-9.3h1.98c6.37,0,11.54-5.17,11.54-11.54c0-6.38-5.18-11.54-11.55-11.54
	c0,0-0.01,0-0.01,0h-1.98c-5.55,0.06-10.33-3.89-11.31-9.35c-0.43-2.64-0.93-5.26-1.52-7.85c-1.13-5.39,1.77-10.82,6.89-12.87
	l1.8-0.75c5.88-2.44,8.67-9.19,6.23-15.07c0,0,0,0,0-0.01c-2.44-5.88-9.19-8.67-15.07-6.23c0,0,0,0-0.01,0l-1.85,0.76
	c-5.09,2.17-11,0.37-14.01-4.27c-1.41-2.26-2.88-4.48-4.43-6.65c-3.12-4.55-2.52-10.7,1.44-14.55l1.41-1.41
	c4.51-4.5,4.51-11.8,0.01-16.3c0,0-0.01-0.01-0.01-0.01c-4.5-4.51-11.79-4.51-16.3-0.02c-0.01,0.01-0.01,0.01-0.02,0.02l-1.4,1.44
	c-3.86,3.95-10,4.56-14.55,1.44c-2.17-1.55-4.38-3.02-6.65-4.43c-4.64-3.01-6.45-8.92-4.27-14.01l0.76-1.85
	c2.44-5.89-0.36-12.64-6.25-15.08c-5.89-2.44-12.64,0.36-15.08,6.25l-0.75,1.8c-2.05,5.11-7.47,8.02-12.87,6.89
	c-2.59-0.59-5.2-1.1-7.85-1.52c-5.44-0.99-9.38-5.76-9.31-11.3v-2c0-6.37-5.17-11.54-11.54-11.54s-11.54,5.17-11.54,11.54v1.98
	c0.06,5.55-3.89,10.33-9.35,11.31c-2.64,0.43-5.26,0.93-7.85,1.52c-5.39,1.13-10.82-1.77-12.87-6.89l-0.75-1.8
	c-2.44-5.89-9.19-8.69-15.08-6.25c-5.89,2.44-8.69,9.19-6.25,15.08l0.76,1.85c2.19,5.08,0.39,11-4.26,14
	c-2.26,1.41-4.47,2.88-6.64,4.42c-4.55,3.13-10.69,2.53-14.55-1.42l-1.41-1.41c-4.5-4.51-11.8-4.51-16.3-0.01
	c0,0-0.01,0.01-0.01,0.01c-4.5,4.51-4.5,11.81,0,16.32l1.41,1.41c3.95,3.86,4.55,10,1.42,14.55c-1.54,2.16-3.01,4.37-4.42,6.64
	c-3,4.65-8.92,6.45-14.01,4.27l-1.85-0.76c-5.89-2.43-12.63,0.35-15.08,6.23c-2.43,5.89,0.35,12.63,6.23,15.08l1.8,0.75
	c5.11,2.05,8.02,7.47,6.89,12.87c-0.59,2.59-1.1,5.2-1.52,7.85c-0.98,5.45-5.76,9.39-11.3,9.32h-1.94
	c-6.38,0-11.54,5.17-11.54,11.55c0,6.37,5.17,11.54,11.54,11.54h1.98c5.55-0.06,10.33,3.89,11.31,9.35
	c0.43,2.64,0.93,5.26,1.52,7.85c1.13,5.39-1.77,10.82-6.89,12.87l-1.8,0.75c-5.88,2.44-8.67,9.19-6.23,15.07c0,0,0,0,0,0.01
	c2.44,5.88,9.19,8.67,15.07,6.23c0,0,0,0,0.01,0l1.85-0.76c5.09-2.17,11-0.37,14.01,4.27c1.41,2.26,2.88,4.48,4.43,6.65
	c3.12,4.55,2.52,10.7-1.44,14.55l-1.41,1.41c-4.49,4.52-4.47,11.82,0.04,16.32c4.5,4.48,11.77,4.48,16.27,0l1.41-1.41
	c3.86-3.95,10-4.56,14.55-1.44c2.17,1.55,4.38,3.02,6.65,4.43c4.64,3.01,6.45,8.92,4.27,14.01l-0.76,1.85
	c-2.44,5.89,0.36,12.64,6.25,15.08c5.89,2.44,12.64-0.36,15.08-6.25l0.75-1.8c2.05-5.11,7.47-8.02,12.87-6.89
	c2.59,0.59,5.2,1.1,7.85,1.52c5.44,0.98,9.37,5.74,9.3,11.26v1.98c0,6.37,5.16,11.54,11.53,11.55c6.37,0,11.54-5.16,11.55-11.53
	c0-0.01,0-0.01,0-0.02v-1.98c-0.06-5.55,3.89-10.33,9.35-11.31c2.64-0.43,5.26-0.93,7.85-1.52c5.39-1.13,10.82,1.77,12.87,6.89
	l0.75,1.8c2.44,5.89,9.19,8.69,15.08,6.25c5.89-2.44,8.69-9.19,6.25-15.08l-0.76-1.85c-2.17-5.09-0.37-11,4.27-14.01
	c2.26-1.41,4.48-2.88,6.65-4.43c4.55-3.12,10.7-2.52,14.55,1.44l1.41,1.41c4.49,4.52,11.8,4.54,16.32,0.04
	c4.52-4.49,4.54-11.8,0.04-16.32c-0.01-0.01-0.03-0.03-0.04-0.04l-1.41-1.41c-3.95-3.86-4.56-10-1.44-14.55
	c1.55-2.17,3.02-4.38,4.43-6.65c3.01-4.64,8.92-6.45,14.01-4.27l1.85,0.76c5.89,2.43,12.63-0.35,15.08-6.23
	c2.43-5.89-0.35-12.63-6.23-15.08l-1.8-0.75c-5.11-2.05-8.02-7.47-6.89-12.87C274.29,176.1,274.8,173.49,275.23,170.84z
	 M149.99,57.7c47.8,0,87.11,36.33,91.83,82.88h-71.38c-3.17-8.94-11.59-15.39-21.57-15.6L114.18,64.9
	C125.19,60.26,137.29,57.7,149.99,57.7z M57.68,150.01c0-30.02,14.34-56.68,36.53-73.54l34.34,59.47
	c-2.27,3.61-3.61,7.87-3.61,12.45c0,5.22,1.73,10.03,4.62,13.92l-35.35,61.23C72.02,206.68,57.68,180.02,57.68,150.01z
	 M149.99,242.32c-12.7,0-24.8-2.57-35.81-7.21l36.61-63.41c9.13-0.94,16.69-7.13,19.65-15.5h71.63
	C238.88,204.29,198.89,242.31,149.99,242.32z"/>
</svg>
