<?xml version="1.0" encoding="utf-8"?>
<!-- Generator: Adobe Illustrator 24.0.1, SVG Export Plug-In . SVG Version: 6.00 Build 0)  -->
<svg  fill='#d9a4fc' version="1.1" id="Layer_1" xmlns="http://www.w3.org/2000/svg" xmlns:xlink="http://www.w3.org/1999/xlink" x="0px" y="0px"
	 viewBox="0 0 300 300" style="enable-background:new 0 0 300 300;" xml:space="preserve">
<g id="image_1_" transform="translate(0 -0.492)">
	<path id="Path_56" d="M78.11,231.76c-20.07-0.04-37.88-12.87-44.28-31.89l-0.44-1.44c-1.4-4.38-2.13-8.95-2.16-13.56V99.64
		L0.9,200.87c-3.86,14.98,4.99,30.3,19.9,34.44l193.3,51.77c2.35,0.61,4.77,0.92,7.2,0.93c12.59,0.07,23.66-8.31,27.01-20.44
		l11.26-35.81L78.11,231.76z"/>
	<path id="Path_57" d="M112.49,100.49c13.81,0,25-11.19,25-25c0-13.81-11.19-25-25-25c-13.81,0-25,11.19-25,25
		C87.49,89.29,98.68,100.48,112.49,100.49z"/>
	<path id="Path_58" d="M268.74,12.98H81.23c-17.25,0.03-31.23,14-31.25,31.25v137.51c0.02,17.25,14,31.23,31.25,31.25h187.51
		c17.25-0.02,31.23-14,31.26-31.25V44.23C299.98,26.98,286,13,268.74,12.98z M81.23,37.98h187.51c3.45,0,6.25,2.8,6.25,6.25v88.75
		l-39.49-46.09c-4.22-4.85-10.33-7.65-16.76-7.69c-6.46,0.03-12.57,2.92-16.7,7.89l-46.43,55.74l-15.13-15.09
		c-8.57-8.55-22.44-8.55-31,0l-34.5,34.49v-118C74.98,40.78,77.78,37.98,81.23,37.98C81.23,37.98,81.23,37.98,81.23,37.98z"/>
</g>
</svg>
