<svg width="181" height="63" xmlns="http://www.w3.org/2000/svg" xmlns:xlink="http://www.w3.org/1999/xlink" xmlns:svgjs="http://svgjs.com/svgjs" viewBox="1116 1400 181 63"><svg width="181" height="42" xmlns="http://www.w3.org/2000/svg" xmlns:xlink="http://www.w3.org/1999/xlink" xmlns:svgjs="http://svgjs.com/svgjs" viewBox="1116 1400 181 42" x="1116" y="1400"><svg width="174" height="39" xmlns="http://www.w3.org/2000/svg" xmlns:xlink="http://www.w3.org/1999/xlink" xmlns:svgjs="http://svgjs.com/svgjs" viewBox="0 0.342 174 38.315" fill="#ffc727" x="1116" y="1403"><svg xmlns="http://www.w3.org/2000/svg" xmlns:xlink="http://www.w3.org/1999/xlink" width="174" height="39" viewBox="0.889 0.262 172.499 37.985"><path paint-order="stroke fill markers" fill-rule="evenodd" d="M3.465 38.247L.89 35.564 24.026 13.4l20.663 5.52 36.778-6.997 40.489 8.62L171.993.263l1.394 3.447-51.093 20.706L81.43 15.72l-36.875 7.016-19.463-5.201L3.465 38.247z"/></svg></svg><svg width="12" height="11" xmlns="http://www.w3.org/2000/svg" xmlns:xlink="http://www.w3.org/1999/xlink" xmlns:svgjs="http://svgjs.com/svgjs" viewBox="1285 1400 12 11" x="1285" y="1400"><svg width="12" height="11" xmlns="http://www.w3.org/2000/svg" xmlns:xlink="http://www.w3.org/1999/xlink" xmlns:svgjs="http://svgjs.com/svgjs" viewBox="0.123 0 11.754 11" fill="#ffc727" x="1285" y="1400"><svg xmlns="http://www.w3.org/2000/svg" xmlns:xlink="http://www.w3.org/1999/xlink" width="12" height="11" viewBox="0.093 0.442 11.018 10.311"><path paint-order="stroke fill markers" fill-rule="evenodd" d="M4.272 10.753l6.84-8.773L.092.442l4.18 10.311z"/></svg></svg></svg></svg><svg width="175" height="3" xmlns="http://www.w3.org/2000/svg" xmlns:xlink="http://www.w3.org/1999/xlink" xmlns:svgjs="http://svgjs.com/svgjs" viewBox="0 0.256 175 2.488" fill="#cfcfcf" x="1118" y="1448"><svg xmlns="http://www.w3.org/2000/svg" xmlns:xlink="http://www.w3.org/1999/xlink" width="175" height="3" viewBox="0.178 0.287 174.46 2.48"><path paint-order="stroke fill markers" fill-rule="evenodd" d="M.178.287h174.46v2.48H.177V.287z"/></svg></svg><svg width="41" height="3" xmlns="http://www.w3.org/2000/svg" xmlns:xlink="http://www.w3.org/1999/xlink" xmlns:svgjs="http://svgjs.com/svgjs" viewBox="0 0.252 41 2.497" fill="#cfcfcf" x="1118" y="1460"><svg xmlns="http://www.w3.org/2000/svg" width="41" height="3" viewBox="0.178 0.38 40.706 2.479"><path paint-order="stroke fill markers" fill-rule="evenodd" d="M.178.38h40.705v2.478H.178V.38z"/></svg></svg></svg>