<?xml version="1.0" encoding="utf-8"?>
<!-- Generator: Adobe Illustrator 24.0.1, SVG Export Plug-In . SVG Version: 6.00 Build 0)  -->
<svg fill='#fd907e' version="1.1" id="Layer_1" xmlns="http://www.w3.org/2000/svg" xmlns:xlink="http://www.w3.org/1999/xlink" x="0px" y="0px"
	 viewBox="0 0 300 300" style="enable-background:new 0 0 300 300;" xml:space="preserve">
<g>
	<ellipse cx="247.81" cy="74.85" rx="37.13" ry="37.99"/>
	<ellipse cx="52.67" cy="74.85" rx="37.13" ry="37.99"/>
	<circle cx="150.24" cy="52.4" r="44.9"/>
	<path d="M247.5,127.5c-7.5,0-24,3-30,7.5c4.89,11.9,7.43,24.63,7.5,37.5c0,0-18-60-75-60c-57,0-75,60-75,60
		c0.07-12.87,2.61-25.6,7.5-37.5c-6-4.5-22.5-7.5-30-7.5C27,127.5,0,157.5,0,177v85.5c0.05,16.55,13.45,29.95,30,30h43.5
		c13.5-13.5,37.5-30,76.5-30c39,0,63,16.5,76.5,30H270c16.55-0.05,29.95-13.45,30-30V177C300,157.5,270,127.5,247.5,127.5z
		 M150.75,247.5c-0.25,0-0.5,0-0.75,0c-20.71,0-37.5-16.79-37.5-37.5c0-20.71,16.79-37.5,37.5-37.5c20.71,0,37.5,16.79,37.5,37.5
		C187.71,230.5,171.25,247.29,150.75,247.5z"/>
</g>
</svg>
